# File created by Blade
# Date/Time:  Wed Apr 08 14:47:20 2015
# Frame Rate: 120.000 fps
#------------------------------------------------------
:FULLY-SPECIFIED
:DEGREES
3376
root 5.634171 32.712670 -2.553819 7.055354 1.583518 -1.768786
Spine -10.213351 -7.257676 -0.295631
Head 17.187900 -3.929577 -6.635485
LeftShoulder -11.406914 36.743762 15.820560
LeftArm 81.910188 -2.618523 -88.475768
LeftForeArm -10.553451 -0.000000 138.870846
LeftHand 9.806083 0.000000 -0.730502
LeftHandThumb1 -26.253704 0.000000 33.147579
RightShoulder -2.865765 -14.404296 -14.124665
RightArm 17.325749 -29.843735 83.744822
RightForeArm 2.345892 -0.000000 24.188749
RightHand 5.950594 -0.000000 5.906324
RightHandThumb1 -24.326973 -0.000000 -32.862282
LeftUpLeg -1.330677 -5.434317 1.574504
LeftLeg -3.812804 -0.000000 0.000000
LeftFoot -6.167280 10.677446 -16.187974
LeftToeBase 0.981364 -0.000000 -0.000000
RightUpLeg -0.374076 3.645044 2.495652
RightLeg -6.939461 -0.000000 0.000000
RightFoot -3.448912 -19.853012 4.154278
RightToeBase -1.715475 -0.000000 0.000000
3377
root 5.639187 32.712084 -2.548789 7.072559 1.481425 -1.777180
Spine -10.252815 -7.245662 -0.257646
Head 17.097554 -3.846768 -6.604966
LeftShoulder -11.395946 36.730289 15.855830
LeftArm 81.991433 -2.647650 -88.485609
LeftForeArm -10.637658 -0.000000 138.890096
LeftHand 9.862502 -0.000000 -0.671069
LeftHandThumb1 -26.253704 0.000000 33.147579
RightShoulder -2.841480 -14.399823 -14.152209
RightArm 17.286506 -29.963800 83.787675
RightForeArm 2.366867 -0.000000 24.314175
RightHand 5.978891 -0.000000 6.004276
RightHandThumb1 -24.326973 -0.000000 -32.862282
LeftUpLeg -1.318886 -5.376049 1.563563
LeftLeg -3.828869 -0.000000 0.000000
LeftFoot -6.183267 10.713106 -16.192342
LeftToeBase 0.949455 -0.000000 -0.000000
RightUpLeg -0.375566 3.689181 2.487878
RightLeg -6.962818 -0.000000 0.000000
RightFoot -3.432622 -19.813441 4.132395
RightToeBase -1.679870 -0.000000 0.000000
3378
root 5.643978 32.712072 -2.544480 7.100743 1.392894 -1.787049
Spine -10.306115 -7.248405 -0.217192
Head 17.039952 -3.767443 -6.571334
LeftShoulder -11.387156 36.713451 15.885223
LeftArm 82.054358 -2.652807 -88.503549
LeftForeArm -10.780440 -0.000000 138.887269
LeftHand 10.023035 0.000000 -0.684441
LeftHandThumb1 -26.253704 0.000000 33.147579
RightShoulder -2.799387 -14.426342 -14.165597
RightArm 17.262134 -29.978130 83.863256
RightForeArm 2.387369 -0.000000 24.387771
RightHand 5.968686 0.000000 5.911833
RightHandThumb1 -24.326973 -0.000000 -32.862282
LeftUpLeg -1.329972 -5.317238 1.560328
LeftLeg -3.823365 -0.000000 0.000000
LeftFoot -6.207004 10.717227 -16.206809
LeftToeBase 0.953366 -0.000000 -0.000000
RightUpLeg -0.382844 3.722393 2.480322
RightLeg -7.003262 -0.000000 0.000000
RightFoot -3.395632 -19.768151 4.134594
RightToeBase -1.706754 -0.000000 0.000000
3379
root 5.648569 32.712214 -2.539908 7.129372 1.302273 -1.805030
Spine -10.353817 -7.237767 -0.173446
Head 16.979894 -3.710826 -6.529076
LeftShoulder -11.407294 36.727936 15.883867
LeftArm 82.153629 -2.629098 -88.484766
LeftForeArm -10.867864 0.000000 138.876725
LeftHand 9.981110 0.000000 -0.548062
LeftHandThumb1 -26.253704 0.000000 33.147579
RightShoulder -2.785143 -14.428240 -14.178712
RightArm 17.228057 -30.053920 83.908899
RightForeArm 2.331361 -0.000000 24.448332
RightHand 5.997277 0.000000 5.977883
RightHandThumb1 -24.326973 -0.000000 -32.862282
LeftUpLeg -1.357857 -5.177336 1.560208
LeftLeg -3.784464 -0.000000 0.000000
LeftFoot -6.226107 10.646552 -16.193854
LeftToeBase 0.970566 -0.000000 -0.000000
RightUpLeg -0.400568 3.754484 2.481157
RightLeg -7.020570 -0.000000 0.000000
RightFoot -3.369540 -19.717441 4.149905
RightToeBase -1.709442 -0.000000 0.000000
3380
root 5.652904 32.712171 -2.536633 7.156906 1.231200 -1.812117
Spine -10.399750 -7.237996 -0.144168
Head 16.945727 -3.660836 -6.480618
LeftShoulder -11.401146 36.734523 15.895116
LeftArm 82.238906 -2.619537 -88.465889
LeftForeArm -10.970565 -0.000000 138.867738
LeftHand 9.938111 -0.000000 -0.487024
LeftHandThumb1 -26.253704 0.000000 33.147579
RightShoulder -2.774717 -14.439341 -14.195287
RightArm 17.224705 -30.181358 83.916362
RightForeArm 2.409237 -0.000000 24.479390
RightHand 6.020714 -0.000000 6.015577
RightHandThumb1 -24.326973 -0.000000 -32.862282
LeftUpLeg -1.387796 -5.083595 1.555738
LeftLeg -3.749576 -0.000000 0.000000
LeftFoot -6.253312 10.593117 -16.215647
LeftToeBase 0.964900 -0.000000 -0.000000
RightUpLeg -0.416404 3.777344 2.474059
RightLeg -7.040532 -0.000000 0.000000
RightFoot -3.350623 -19.686461 4.146639
RightToeBase -1.719671 -0.000000 0.000000
3381
root 5.656402 32.712488 -2.532737 7.184528 1.157782 -1.821863
Spine -10.448098 -7.235341 -0.117015
Head 16.936093 -3.612245 -6.434922
LeftShoulder -11.384150 36.731721 15.921179
LeftArm 82.295426 -2.602554 -88.455235
LeftForeArm -11.068750 0.000000 138.866416
LeftHand 9.895174 -0.000000 -0.497903
LeftHandThumb1 -26.253704 0.000000 33.147579
RightShoulder -2.765247 -14.461449 -14.207913
RightArm 17.247647 -30.240548 83.945041
RightForeArm 2.412404 -0.000000 24.431480
RightHand 6.047075 -0.000000 6.044378
RightHandThumb1 -24.326973 -0.000000 -32.862282
LeftUpLeg -1.410380 -4.989274 1.554963
LeftLeg -3.724558 -0.000000 0.000000
LeftFoot -6.259086 10.537511 -16.232941
LeftToeBase 0.919423 -0.000000 -0.000000
RightUpLeg -0.418676 3.845162 2.466595
RightLeg -7.090708 -0.000000 0.000000
RightFoot -3.305050 -19.694488 4.138151
RightToeBase -1.701882 -0.000000 0.000000
3382
root 5.660489 32.711882 -2.528221 7.204873 1.086467 -1.830507
Spine -10.495229 -7.243015 -0.075331
Head 16.946302 -3.557623 -6.438075
LeftShoulder -11.326751 36.564921 16.008677
LeftArm 82.143135 -2.581002 -88.493376
LeftForeArm -11.169118 -0.000000 138.893699
LeftHand 9.807027 -0.000000 -0.528339
LeftHandThumb1 -26.253704 0.000000 33.147579
RightShoulder -2.732063 -14.474122 -14.259444
RightArm 17.260459 -30.309049 83.981934
RightForeArm 2.383703 -0.000000 24.365333
RightHand 6.082501 -0.000000 6.033162
RightHandThumb1 -24.326973 -0.000000 -32.862282
LeftUpLeg -1.424923 -4.881427 1.548342
LeftLeg -3.703508 -0.000000 0.000000
LeftFoot -6.273416 10.483800 -16.226022
LeftToeBase 0.923247 -0.000000 -0.000000
RightUpLeg -0.415578 3.905853 2.461279
RightLeg -7.131653 -0.000000 0.000000
RightFoot -3.281280 -19.693806 4.153856
RightToeBase -1.722549 -0.000000 0.000000
3383
root 5.664569 32.712376 -2.523600 7.211805 1.025528 -1.834410
Spine -10.525178 -7.242953 -0.059597
Head 16.983074 -3.511152 -6.385949
LeftShoulder -11.293741 36.586115 16.059926
LeftArm 82.202825 -2.531762 -88.507100
LeftForeArm -11.251061 0.000000 138.920705
LeftHand 9.704921 0.000000 -0.646598
LeftHandThumb1 -26.253704 0.000000 33.147579
RightShoulder -2.709444 -14.452323 -14.282040
RightArm 17.230927 -30.384186 83.998590
RightForeArm 2.324269 -0.000000 24.306012
RightHand 6.067776 0.000000 6.129689
RightHandThumb1 -24.326973 -0.000000 -32.862282
LeftUpLeg -1.419678 -4.813565 1.539494
LeftLeg -3.695184 -0.000000 0.000000
LeftFoot -6.269290 10.451941 -16.223105
LeftToeBase 0.906202 -0.000000 -0.000000
RightUpLeg -0.415557 3.918507 2.453083
RightLeg -7.134548 -0.000000 0.000000
RightFoot -3.293721 -19.653275 4.203119
RightToeBase -1.730509 -0.000000 0.000000
3384
root 5.667785 32.712717 -2.519601 7.235799 0.976259 -1.855395
Spine -10.572839 -7.233137 -0.029101
Head 17.039420 -3.495258 -6.340115
LeftShoulder -11.272669 36.644000 16.082981
LeftArm 82.327492 -2.478961 -88.473544
LeftForeArm -11.279177 -0.000000 138.927126
LeftHand 9.661126 -0.000000 -0.715841
LeftHandThumb1 -26.253704 0.000000 33.147579
RightShoulder -2.722357 -14.496688 -14.293397
RightArm 17.295591 -30.488583 83.954028
RightForeArm 2.338972 -0.000000 24.204695
RightHand 6.010270 -0.000000 6.183386
RightHandThumb1 -24.326973 -0.000000 -32.862282
LeftUpLeg -1.426574 -4.780725 1.550612
LeftLeg -3.703223 -0.000000 0.000000
LeftFoot -6.281230 10.475796 -16.218950
LeftToeBase 0.905797 -0.000000 -0.000000
RightUpLeg -0.432355 3.930463 2.463406
RightLeg -7.141193 -0.000000 0.000000
RightFoot -3.271520 -19.620473 4.198040
RightToeBase -1.762373 -0.000000 0.000000
3385
root 5.673127 32.713173 -2.514105 7.270503 0.905103 -1.865840
Spine -10.645970 -7.225309 0.001324
Head 17.124194 -3.452496 -6.317899
LeftShoulder -11.275687 36.678569 16.096486
LeftArm 82.396635 -2.419731 -88.438471
LeftForeArm -11.218832 0.000000 138.922579
LeftHand 9.575687 -0.000000 -0.672595
LeftHandThumb1 -26.253704 0.000000 33.147579
RightShoulder -2.685356 -14.506646 -14.334261
RightArm 17.286853 -30.534548 83.968552
RightForeArm 2.333795 -0.000000 24.081109
RightHand 6.009270 -0.000000 6.239926
RightHandThumb1 -24.326973 -0.000000 -32.862282
LeftUpLeg -1.442151 -4.696940 1.542777
LeftLeg -3.705944 -0.000000 0.000000
LeftFoot -6.291144 10.461259 -16.210464
LeftToeBase 0.873732 -0.000000 -0.000000
RightUpLeg -0.453386 3.988895 2.454122
RightLeg -7.157714 -0.000000 0.000000
RightFoot -3.255497 -19.622662 4.199115
RightToeBase -1.748656 -0.000000 0.000000
3386
root 5.677857 32.713943 -2.509771 7.300660 0.855349 -1.875420
Spine -10.709045 -7.225796 0.019245
Head 17.225093 -3.413146 -6.274017
LeftShoulder -11.275472 36.709132 16.115450
LeftArm 82.487369 -2.326298 -88.389971
LeftForeArm -11.131655 -0.000000 138.905231
LeftHand 9.547983 0.000000 -0.722795
LeftHandThumb1 -26.253704 0.000000 33.147579
RightShoulder -2.656632 -14.524052 -14.352482
RightArm 17.281969 -30.572421 83.963420
RightForeArm 2.364506 -0.000000 23.953271
RightHand 6.039987 -0.000000 6.198743
RightHandThumb1 -24.326973 -0.000000 -32.862282
LeftUpLeg -1.469467 -4.599632 1.533905
LeftLeg -3.682197 -0.000000 0.000000
LeftFoot -6.312284 10.468510 -16.011491
LeftToeBase 1.145247 -0.000000 -0.000000
RightUpLeg -0.473477 4.011192 2.448047
RightLeg -7.165843 -0.000000 0.000000
RightFoot -3.251318 -19.589287 4.234404
RightToeBase -1.749432 -0.000000 0.000000
